<?xml version="1.0" standalone="no"?>
<!DOCTYPE svg PUBLIC "-//W3C//DTD SVG 20010904//EN"
 "http://www.w3.org/TR/2001/REC-SVG-20010904/DTD/svg10.dtd">
<svg version="1.0" xmlns="http://www.w3.org/2000/svg"
 width="2048.000000pt" height="2048.000000pt" viewBox="0 0 2048.000000 2048.000000"
 preserveAspectRatio="xMidYMid meet">

<g transform="translate(0.000000,2048.000000) scale(0.100000,-0.100000)"
fill="#000000" stroke="none">
<path d="M17082 11259 c-29 -5 -77 -19 -105 -31 -279 -117 -464 -392 -513
-761 -43 -323 44 -635 320 -1156 158 -298 252 -518 304 -711 35 -130 36 -344
3 -465 -29 -108 -70 -211 -92 -230 -9 -9 -48 -23 -86 -31 -75 -15 -95 -32
-134 -112 -38 -77 -2 -151 98 -202 38 -20 62 -25 120 -24 61 0 82 5 145 37 88
43 242 168 291 234 64 88 124 252 148 406 17 114 6 308 -25 427 -55 209 -118
358 -290 688 -357 683 -362 695 -353 931 3 107 10 165 26 219 40 137 135 298
221 376 36 33 47 37 74 32 105 -22 123 -21 181 18 58 38 80 65 95 115 30 105
-98 218 -271 241 -84 11 -86 11 -157 -1z"/>
<path d="M10960 11136 c-53 -15 -122 -49 -136 -68 -16 -20 -44 -101 -44 -125
0 -31 85 -120 144 -150 28 -14 76 -34 106 -43 l55 -16 8 -100 c11 -145 13
-838 3 -1068 l-8 -198 -69 -67 c-57 -56 -69 -73 -69 -99 0 -49 23 -95 66 -131
l39 -33 -12 -126 c-14 -140 -32 -859 -33 -1265 l0 -257 40 -44 c52 -56 126
-82 209 -72 63 7 89 21 429 230 265 162 360 233 484 356 180 180 262 347 274
560 8 123 -12 218 -67 328 -79 156 -254 314 -428 385 -109 45 -154 75 -177
118 -8 17 -14 32 -12 33 299 211 518 375 573 431 87 86 165 203 207 310 29 72
32 90 32 185 0 221 -86 373 -302 533 -234 174 -529 312 -752 351 -293 52 -474
66 -560 42z m739 -441 c47 -25 120 -59 161 -75 130 -53 216 -133 241 -224 16
-59 4 -179 -25 -253 -47 -120 -163 -261 -261 -317 -28 -16 -75 -48 -105 -71
-48 -36 -111 -75 -123 -75 -2 0 -7 80 -10 178 -4 97 -14 265 -22 372 -8 107
-15 266 -15 353 l0 157 36 0 c23 0 67 -16 123 -45z m-13 -1809 c138 -46 217
-89 247 -134 42 -59 59 -116 65 -209 4 -68 0 -97 -22 -174 -48 -167 -113 -252
-270 -353 -48 -31 -110 -77 -137 -103 -27 -25 -52 -43 -55 -40 -16 16 -36 134
-40 247 -4 88 0 189 15 342 12 120 21 267 21 327 0 78 4 111 13 114 29 12 99
5 163 -17z"/>
<path d="M18864 11029 c-22 -5 -55 -22 -72 -37 l-32 -27 10 -95 c30 -294 23
-686 -25 -1430 -34 -524 -45 -774 -45 -1077 l0 -261 64 -80 c124 -153 136
-156 305 -71 69 35 205 116 301 181 205 138 747 539 772 571 42 53 9 167 -62
215 -33 23 -41 24 -139 19 -125 -7 -152 -19 -331 -142 -200 -139 -339 -229
-421 -274 l-76 -41 -8 131 c-8 148 -2 437 22 1024 9 220 17 596 17 835 1 423
0 436 -20 475 -37 70 -157 109 -260 84z"/>
<path d="M15353 10974 c-40 -20 -57 -55 -132 -281 -61 -184 -106 -341 -260
-908 -106 -390 -187 -662 -206 -692 -9 -13 -44 -31 -95 -48 -132 -44 -141 -79
-45 -177 58 -58 65 -70 65 -104 0 -54 -23 -146 -77 -306 l-45 -138 -107 98
c-167 154 -652 577 -764 666 -123 98 -167 153 -167 205 0 45 29 75 136 144
200 127 394 384 449 592 23 86 21 251 -4 346 -65 254 -263 490 -469 561 -60
21 -85 23 -232 22 -225 -1 -319 -27 -415 -115 -76 -70 -89 -119 -122 -454 -15
-155 -17 -307 -18 -1110 -1 -914 -1 -933 -24 -1105 -34 -258 -20 -363 61 -448
33 -33 120 -72 162 -72 18 0 108 33 123 44 1 1 9 33 17 72 24 112 45 297 56
489 30 514 41 693 46 723 5 29 7 31 27 21 12 -7 258 -247 547 -534 289 -287
536 -527 548 -534 20 -11 22 -19 22 -105 0 -80 3 -98 23 -127 33 -49 123 -92
202 -97 57 -4 66 -2 88 20 46 46 103 237 193 643 30 138 69 303 86 368 l32
119 50 34 c80 54 184 82 393 104 102 11 189 18 193 15 16 -10 101 -293 145
-485 25 -107 53 -217 62 -244 42 -128 134 -231 235 -261 45 -13 53 -13 81 1
17 9 54 40 82 68 86 86 94 155 34 323 -241 679 -489 1587 -565 2073 -19 124
-42 252 -50 285 -34 133 -121 263 -205 305 -46 24 -112 25 -156 4z m-1756
-400 c115 -55 174 -195 153 -360 -17 -130 -80 -252 -201 -390 -57 -65 -207
-205 -239 -223 -13 -8 -15 12 -17 149 -2 87 -7 209 -13 272 -13 144 -13 385 0
462 11 68 35 100 89 115 58 16 168 4 228 -25z m1901 -826 c58 -233 102 -456
102 -514 l0 -24 -147 -1 c-82 0 -174 -4 -206 -8 l-58 -7 7 30 c16 77 108 398
159 561 32 99 60 188 62 198 3 9 8 17 12 17 3 0 34 -114 69 -252z"/>
<path d="M530 10956 c-30 -6 -78 -24 -107 -40 -46 -25 -54 -35 -73 -87 -27
-71 -20 -95 43 -157 52 -50 120 -87 191 -103 l54 -12 9 -126 c11 -165 10 -902
-1 -1101 l-8 -155 -55 -44 c-98 -78 -104 -155 -17 -238 l43 -42 -9 -82 c-17
-150 -29 -509 -35 -1035 l-5 -521 41 -47 c51 -57 120 -81 212 -73 55 5 78 16
296 148 130 78 277 170 326 203 297 198 461 388 535 621 27 86 38 256 21 335
-28 136 -99 258 -215 367 -97 93 -171 142 -296 197 -109 48 -134 65 -156 107
l-13 27 259 186 c353 255 459 371 533 584 27 81 29 94 24 187 -14 250 -132
411 -444 604 -119 74 -305 164 -411 200 -109 38 -186 53 -421 87 -192 27 -240
28 -321 10z m728 -445 c53 -27 122 -59 152 -72 119 -49 195 -114 233 -198 16
-37 19 -59 15 -135 -6 -98 -20 -144 -77 -241 -42 -74 -159 -192 -226 -230 -27
-16 -68 -43 -90 -60 -49 -40 -106 -75 -121 -75 -7 0 -13 67 -18 203 -3 111
-13 285 -21 387 -19 236 -20 456 -2 463 30 13 64 4 155 -42z m46 -1832 c144
-57 164 -72 206 -153 30 -59 35 -78 38 -160 7 -152 -50 -315 -145 -417 -24
-26 -97 -84 -162 -128 -64 -45 -128 -92 -141 -106 -13 -14 -27 -25 -31 -25 -4
0 -16 35 -26 78 -23 98 -23 326 1 536 9 82 16 208 16 282 0 118 2 133 18 138
40 12 124 -5 226 -45z"/>
<path d="M6610 10822 c-43 -22 -63 -61 -133 -272 -58 -174 -116 -376 -271
-945 -119 -436 -189 -665 -210 -681 -9 -6 -47 -21 -86 -33 -70 -22 -110 -55
-110 -90 0 -8 30 -46 67 -83 65 -65 67 -70 65 -113 -2 -64 -34 -183 -93 -348
-156 -438 -193 -633 -132 -715 32 -44 141 -94 208 -96 52 -1 59 2 85 31 47 52
116 290 205 703 50 234 92 391 114 420 23 32 129 86 207 105 78 20 406 55 417
45 23 -21 109 -319 172 -595 50 -221 126 -338 250 -384 32 -12 69 -20 81 -17
35 9 135 106 155 151 34 73 26 125 -52 342 -212 596 -472 1563 -534 1993 -45
304 -82 414 -172 511 -78 84 -159 109 -233 71z m139 -1217 c58 -232 101 -449
101 -514 l0 -31 -112 -1 c-62 0 -153 -4 -203 -8 -49 -5 -91 -8 -92 -6 -2 1 3
24 11 51 8 27 33 119 56 204 63 235 166 558 175 549 2 -2 31 -112 64 -244z"/>
<path d="M4365 10761 c-68 -30 -68 -32 -54 -188 7 -76 12 -268 12 -428 -1
-291 -7 -440 -43 -980 -31 -466 -41 -698 -42 -1015 l-1 -298 68 -87 c72 -93
113 -125 158 -125 46 0 258 115 446 242 244 164 752 543 773 576 24 37 22 77
-6 139 -41 87 -101 106 -259 82 -86 -13 -108 -25 -347 -189 -196 -135 -287
-193 -370 -235 -45 -23 -51 -24 -57 -9 -8 22 4 851 17 1109 17 361 29 977 22
1152 -8 196 -14 210 -92 251 -57 29 -166 30 -225 3z"/>
<path d="M18075 10736 c-16 -7 -41 -25 -54 -39 l-23 -26 -3 -348 c-2 -350 -4
-379 -60 -943 -56 -571 -72 -980 -46 -1230 14 -138 31 -189 76 -229 46 -40 98
-54 186 -50 85 5 115 21 150 83 21 38 22 46 16 213 -10 262 4 552 62 1288 42
528 50 991 19 1110 -9 36 -15 79 -17 127 -1 12 -9 17 -28 17 -16 -1 -53 8 -83
20 -63 23 -151 27 -195 7z"/>
<path d="M8352 10252 c-152 -54 -320 -234 -436 -468 -227 -457 -259 -895 -87
-1184 50 -83 211 -240 312 -303 141 -88 292 -127 416 -107 337 54 638 313 828
712 74 158 88 217 82 353 -6 129 -29 221 -91 367 -68 158 -115 234 -181 297
-77 71 -144 106 -330 171 -157 55 -236 89 -321 140 -66 39 -124 46 -192 22z
m518 -561 c19 -15 47 -46 62 -67 75 -107 120 -375 87 -512 -17 -70 -81 -202
-138 -284 -128 -186 -273 -288 -411 -292 -48 -1 -61 4 -102 33 -100 72 -202
232 -232 364 -34 149 -14 374 44 488 27 52 107 139 129 139 9 0 41 -16 71 -35
90 -58 102 -54 234 75 61 60 123 114 136 119 36 15 80 5 120 -28z"/>
<path d="M2928 10151 c-98 -39 -232 -163 -329 -307 -108 -160 -214 -423 -260
-644 -31 -152 -31 -361 0 -485 39 -152 95 -247 212 -362 99 -96 168 -147 263
-194 156 -76 289 -86 457 -33 289 90 520 307 692 650 97 194 118 290 97 444
-26 190 -145 470 -245 579 -79 84 -145 121 -345 191 -96 33 -203 77 -239 97
-148 81 -153 83 -205 83 -28 -1 -72 -9 -98 -19z m511 -535 c36 -19 85 -75 112
-128 29 -57 66 -208 74 -303 12 -135 -31 -272 -131 -422 -107 -160 -221 -263
-338 -303 -116 -39 -162 -24 -267 88 -131 141 -186 302 -175 515 8 154 42 252
124 355 41 51 66 54 133 12 96 -59 113 -53 239 75 124 127 162 145 229 111z"/>
</g>
</svg>
